<?xml version="1.0" standalone="no"?>
<!DOCTYPE svg PUBLIC "-//W3C//DTD SVG 20010904//EN"
 "http://www.w3.org/TR/2001/REC-SVG-20010904/DTD/svg10.dtd">
<svg version="1.0" xmlns="http://www.w3.org/2000/svg"
 width="700.000000pt" height="700.000000pt" viewBox="0 0 700.000000 700.000000"
 preserveAspectRatio="xMidYMid meet">
<metadata>
Created by potrace 1.14, written by Peter Selinger 2001-2017
</metadata>
<g transform="translate(0.000000,700.000000) scale(0.100000,-0.100000)"
fill="#000000" stroke="none">
<path d="M1510 6701 c-240 -51 -447 -204 -568 -421 -28 -50 -68 -156 -89 -235
-12 -47 -14 -5050 -2 -5110 6 -27 12 -61 15 -73 5 -25 39 -106 55 -132 5 -8
13 -24 18 -35 17 -39 83 -120 147 -180 116 -111 277 -191 438 -220 56 -10 535
-13 2354 -14 l2282 -1 0 140 0 140 -2267 1 c-1248 0 -2281 3 -2298 5 -202 30
-379 166 -446 343 -26 70 -33 188 -15 258 51 193 239 342 466 368 14 2 1045 3
2293 4 l2267 1 0 2590 0 2590 -2282 -1 c-2157 0 -2288 -1 -2368 -18z m4370
-2571 l0 -2310 -2122 0 c-1168 0 -2148 -3 -2178 -6 -129 -14 -284 -71 -392
-144 -32 -22 -60 -40 -63 -40 -11 0 -5 4295 6 4356 30 166 148 319 301 393 46
22 106 44 133 49 30 6 907 10 2183 11 l2132 1 0 -2310z"/>
<path d="M2222 5724 c-27 -12 -100 -85 -138 -139 -33 -47 -82 -156 -100 -221
-19 -72 -26 -239 -12 -314 18 -102 62 -208 121 -295 20 -28 49 -60 277 -295
179 -185 453 -460 459 -460 3 0 23 -4 43 -9 78 -18 158 50 158 134 0 65 8 57
-485 557 -105 106 -203 209 -218 229 -66 87 -96 223 -76 335 7 38 31 110 45
132 2 3 309 -306 734 -737 113 -115 219 -215 235 -223 26 -13 50 -15 102 -9 7
0 28 15 47 31 48 43 62 112 32 167 -6 12 -253 267 -549 567 -375 379 -548 548
-570 555 -38 12 -68 11 -105 -5z"/>
<path d="M4489 5725 c-286 -60 -532 -211 -708 -437 -40 -50 -91 -168 -113
-256 -39 -162 -21 -399 38 -499 23 -41 24 -46 10 -62 -8 -9 -396 -397 -861
-861 -465 -465 -855 -858 -867 -873 -27 -37 -29 -113 -5 -151 38 -57 107 -79
173 -56 18 6 368 349 903 884 l874 874 39 -26 c60 -39 175 -60 315 -57 133 4
148 6 253 41 106 36 234 115 305 188 137 143 247 330 300 512 111 383 -18 685
-331 774 -70 20 -237 23 -325 5z m293 -289 c20 -8 50 -32 66 -52 159 -192 -48
-706 -343 -849 -93 -46 -140 -55 -260 -51 -154 5 -233 43 -279 133 -23 46 -41
147 -40 223 3 180 56 285 214 420 81 70 237 147 360 180 81 21 228 20 282 -4z"/>
<path d="M3941 3999 c-49 -10 -99 -65 -105 -113 -7 -57 14 -97 94 -175 l71
-69 -105 -106 c-57 -58 -108 -106 -113 -106 -5 0 -38 29 -75 64 -71 70 -117
91 -169 76 -48 -14 -74 -35 -93 -73 -38 -82 -15 -126 148 -284 122 -120 131
-125 191 -125 8 0 25 0 37 1 14 1 85 64 200 178 l178 177 445 -445 c245 -244
460 -452 477 -461 117 -64 249 64 189 182 -19 36 -1251 1259 -1281 1272 -36
14 -51 16 -89 7z"/>
</g>
</svg>
